<svg version="1.2" xmlns="http://www.w3.org/2000/svg" viewBox="0 0 1503 832" width="1503" height="832">
	<title>download-svg</title>
	<defs>
		<linearGradient id="g1" x2="1" gradientUnits="userSpaceOnUse" gradientTransform="matrix(357.366,-766.32,271.816,126.759,1055.351,775.602)">
			<stop offset="0" stop-color="#d4202c" stop-opacity="1"/>
			<stop offset=".1" stop-color="#dc3d29" stop-opacity=".79"/>
			<stop offset=".2" stop-color="#e45926" stop-opacity=".58"/>
			<stop offset=".32" stop-color="#ea7123" stop-opacity=".4"/>
			<stop offset=".43" stop-color="#f08521" stop-opacity=".25"/>
			<stop offset=".55" stop-color="#f4941f" stop-opacity=".14"/>
			<stop offset=".68" stop-color="#f79f1e" stop-opacity=".06"/>
			<stop offset=".82" stop-color="#f8a51d" stop-opacity=".02"/>
			<stop offset="1" stop-color="#f9a71d" stop-opacity="0"/>
		</linearGradient>
		<linearGradient id="g2" x2="1" gradientUnits="userSpaceOnUse" gradientTransform="matrix(-357.366,766.32,-272.403,-127.032,447.913,55.872)">
			<stop offset="0" stop-color="#d4202c" stop-opacity="1"/>
			<stop offset=".1" stop-color="#dc3d29" stop-opacity=".79"/>
			<stop offset=".2" stop-color="#e45926" stop-opacity=".58"/>
			<stop offset=".32" stop-color="#ea7123" stop-opacity=".4"/>
			<stop offset=".43" stop-color="#f08521" stop-opacity=".25"/>
			<stop offset=".55" stop-color="#f4941f" stop-opacity=".14"/>
			<stop offset=".68" stop-color="#f79f1e" stop-opacity=".06"/>
			<stop offset=".82" stop-color="#f8a51d" stop-opacity=".02"/>
			<stop offset="1" stop-color="#f9a71d" stop-opacity="0"/>
		</linearGradient>
	</defs>
	<style>
		.s0 { fill: #ff5100 } 
		.s1 { fill: url(#g1) } 
		.s2 { fill: url(#g2) } 
		.s3 { fill: #ff8c44 } 
	</style>
	<path id="Layer" class="s0" d="m1362.2 0c-12.5 0-25 1.7-37 4.9-12.1 3.3-23.6 8.2-34.4 14.5-10.7 6.3-20.6 14.1-29.3 23-8.7 8.9-16.2 19-22.3 29.9l-2.8 5.9-109.6 217-139.4 274.4 91.3 179.8 5 9.8q5.3 9.3 11.9 17.7 6.5 8.3 14.3 15.7 7.7 7.3 16.5 13.4 8.7 6.1 18.3 10.8 9.5-4.7 18.3-10.8 8.7-6.1 16.5-13.5 7.7-7.3 14.3-15.7 6.6-8.4 11.8-17.6l5-9.8 273.6-539.3 6.6-13c9.3-21.4 13.2-44.7 11.2-67.9-1.9-23.1-9.6-45.5-22.4-64.9-12.7-19.5-30.1-35.5-50.6-46.6-20.5-11.1-43.4-16.9-66.7-17z"/>
	<path id="Layer" class="s0" d="m516.6 261.2l-91.2-178.6-5-9.8q-5.2-9.2-11.7-17.6-6.6-8.4-14.3-15.7-7.7-7.3-16.5-13.4-8.7-6.1-18.2-10.7-9.6 4.6-18.3 10.7-8.7 6-16.5 13.3-7.7 7.3-14.2 15.7-6.6 8.3-11.8 17.6l-5.2 9.9-273.9 538.8-6.6 12.8c-14.8 33.1-16.2 70.5-4 104.6 12.2 34.1 37.2 62.1 69.6 78.2 32.4 16.2 69.9 19.2 104.4 8.4 34.6-10.8 63.7-34.5 81.2-66.2l3-5.7 110.3-217.1 139.2-274.2z"/>
	<path id="Layer" class="s1" d="m1361.8 0c-12.5 0-24.9 1.7-36.9 5-12.1 3.2-23.6 8.1-34.3 14.4-10.8 6.4-20.6 14.1-29.3 23-8.7 9-16.2 19-22.3 29.9l-3 5.9-110.3 217-139.5 274.4 91.5 179.8 5 9.8q5.2 9.3 11.8 17.7 6.5 8.4 14.3 15.7 7.7 7.3 16.5 13.4 8.7 6.1 18.3 10.8 9.6-4.7 18.3-10.8 8.8-6.1 16.5-13.4 7.8-7.3 14.4-15.7 6.5-8.4 11.7-17.7l5.2-9.8 274.5-539.3 6.4-13c9.4-21.4 13.2-44.7 11.2-67.9-1.9-23.1-9.6-45.5-22.3-64.9-12.8-19.5-30.2-35.5-50.7-46.6-20.4-11.1-43.3-16.9-66.6-17z"/>
	<path id="Layer" class="s2" d="m141.5 831.5c12.4 0 24.8-1.6 36.8-4.8 12-3.2 23.5-8 34.2-14.3 10.8-6.2 20.7-13.9 29.4-22.7 8.7-8.9 16.2-18.8 22.3-29.6l3.1-5.9 110.4-217.1 139.4-274.3-91.3-180.7-5-9.8q-5.3-9.3-11.9-17.7-6.6-8.4-14.4-15.7-7.7-7.4-16.5-13.4-8.8-6.1-18.3-10.9-9.6 4.8-18.4 10.9-8.7 6.1-16.4 13.4-7.8 7.3-14.4 15.7-6.5 8.4-11.8 17.7l-5 9.8-274.8 539.3-6.6 13c-9.3 21.3-13.2 44.6-11.2 67.8 1.9 23.2 9.6 45.5 22.4 65 12.7 19.5 30.1 35.5 50.6 46.6 20.4 11.1 43.4 16.9 66.6 17z"/>
	<path id="Layer" class="s3" d="m516.6 261.2l-91.2-178.6-5-9.8q-5.2-9.3-11.8-17.7-6.5-8.4-14.3-15.7-7.7-7.3-16.5-13.4-8.8-6.1-18.3-10.8 3.2-1.6 6.4-3 3.3-1.4 6.6-2.7 3.4-1.2 6.8-2.3 3.4-1.1 6.8-2 4.4-1.1 8.8-2 4.5-0.8 8.9-1.4 4.5-0.5 9-0.8 4.5-0.3 9-0.3h190.9c12.4 0 24.7 1.7 36.7 5 12 3.2 23.5 8 34.2 14.3 10.7 6.2 20.6 13.8 29.3 22.6 8.7 8.8 16.2 18.7 22.4 29.5l5 9.8 246.8 488.4 90.9 178.5 5 9.8q5.3 9.4 12 17.9 6.6 8.5 14.4 15.9 7.9 7.4 16.7 13.6 8.9 6.1 18.6 10.8-7.2 3.5-14.8 6.2-7.6 2.7-15.4 4.5-7.8 1.9-15.8 2.8-8 0.9-16 1h-191.9c-12.4 0-24.8-1.7-36.7-5-12-3.2-23.5-8-34.2-14.3-10.7-6.2-20.5-13.8-29.2-22.6-8.7-8.8-16.2-18.7-22.4-29.5l-5.1-9.8z"/>
</svg>