<svg id="Layer_1" data-name="Layer 1" xmlns="http://www.w3.org/2000/svg" viewBox="0 0 233.667 233.667">
  <defs>
    <style>
      .cls-1 {
        fill: #ff787a;
      }
    </style>
  </defs>
  <title>Porkbun_Pig_Rev</title>
  <g>
    <path class="cls-1" d="M122.167,5.333A116.833,116.833,0,1,0,239,122.167,116.833,116.833,0,0,0,122.167,5.333Zm-59.986,57.1A106.4,106.4,0,0,1,91.49,73.39,67.664,67.664,0,0,0,65.6,96.78a34.238,34.238,0,0,1-3.421-34.352ZM185.257,170.361a11.544,11.544,0,0,1-23.087,0V161.1H82.164v9.258a11.544,11.544,0,0,1-23.087,0v-35.47c0-34.21,26.6-63.346,60.79-64.561a63.092,63.092,0,0,1,65.391,63.049ZM178.731,96.78a67.665,67.665,0,0,0-25.888-23.39,106.4,106.4,0,0,1,29.309-10.962,34.238,34.238,0,0,1-3.421,34.352Z" transform="translate(-5.333 -5.333)"/>
    <path class="cls-1" d="M155.138,117.365a2,2,0,0,0-2.656.633,10.856,10.856,0,0,1-4.037,3.549c.032-.4.061-.805.061-1.216a14.876,14.876,0,0,0-3.465-9.542,8.968,8.968,0,1,0-14.108,11.064,15.068,15.068,0,0,0,5.614,4.5,10.2,10.2,0,0,1-4.884,1.365v0a3.739,3.739,0,0,0-3.7,3.737,3.8,3.8,0,0,0,3.7,3.737c.463.027,1.222.128,1.849.128a14.981,14.981,0,0,0,13.326-8.142,15.021,15.021,0,0,0,9.029-7.086A2.006,2.006,0,0,0,155.138,117.365Zm-14.653,4.922a10.834,10.834,0,0,1-5.7-4.048l0,0a3.708,3.708,0,1,1,6.73-2.47,9.928,9.928,0,0,1,.167,1.721A10.189,10.189,0,0,1,140.485,122.288Z" transform="translate(-5.333 -5.333)"/>
  </g>
</svg>
